#N canvas 827 239 527 327 12;
#N canvas 733 172 450 300 hello_sound 1;
#X obj 153 410 phasor~;
#X obj 223 419 phasor~;
#X obj 192 616 +~;
#X obj 223 399 *~ 1.005;
#X obj 192 658 lop~ 5000;
#X obj 192 637 vcf~ 3;
#X obj 223 447 *~ 2;
#X obj 153 441 *~ 2;
#X obj 223 476 -~ 1;
#X obj 153 470 -~ 1;
#X obj 192 697 expr~ tanh($v1);
#X obj 192 737 outlet~ (signal) soft clipped output;
#X obj 343 238 osc~;
#X obj 223 322 +~;
#X obj 308 289 *~ 300;
#X obj 284 48 loadbang;
#X obj 161 71 metro 50;
#X obj 308 123 metro 1000;
#X obj 284 79 bng 25 250 50 0 empty empty empty 17 7 0 10 #e3dfd9 #5a5a5a #5a5a5a;
#X obj 161 100 random 100;
#X obj 161 129 + 300;
#X msg 161 157 \$1 50;
#X obj 161 182 line;
#X obj 192 250 sig~;
#X obj 308 152 random 100;
#X obj 308 181 / 50;
#X obj 308 210 sig~;
#X connect 0 0 7 0;
#X connect 1 0 6 0;
#X connect 2 0 5 0;
#X connect 3 0 1 0;
#X connect 4 0 10 0;
#X connect 5 0 4 0;
#X connect 6 0 8 0;
#X connect 7 0 9 0;
#X connect 8 0 2 1;
#X connect 9 0 2 0;
#X connect 10 0 11 0;
#X connect 12 0 14 0;
#X connect 13 0 3 0;
#X connect 13 0 0 0;
#X connect 13 0 5 1;
#X connect 14 0 13 1;
#X connect 15 0 18 0;
#X connect 16 0 19 0;
#X connect 17 0 24 0;
#X connect 18 0 16 0;
#X connect 18 0 17 0;
#X connect 19 0 20 0;
#X connect 20 0 21 0;
#X connect 21 0 22 0;
#X connect 22 0 23 0;
#X connect 23 0 13 0;
#X connect 24 0 25 0;
#X connect 25 0 26 0;
#X connect 26 0 12 0;
#X restore 240 164 pd hello_sound;
#X obj 240 212 dac~;
#X connect 0 0 1 0;
#X connect 0 0 1 1;
