#N canvas 827 239 527 327 12;
#X obj 1565 460 tgl 25 0 empty empty empty 17 7 0 10 #e3dfd9 #5a5a5a #5a5a5a 0 1;
#X obj 2048 535 metro 100;
#X obj 2048 471 tgl 25 0 empty empty empty 17 7 0 10 #e3dfd9 #5a5a5a #5a5a5a 0 1;
#X obj 2040 627 bng 25 250 50 0 empty empty empty 17 7 0 10 #e3dfd9 #5a5a5a #5a5a5a;
#X obj 2129 627 bng 25 250 50 0 empty empty empty 17 7 0 10 #e3dfd9 #5a5a5a #5a5a5a;
#X obj 2219 627 bng 25 250 50 0 empty empty empty 17 7 0 10 #e3dfd9 #5a5a5a #5a5a5a;
#X obj 1979 697 bela_bangsound~;
#X obj 2113 682 bela_cowbell~ 48;
#X obj 2118 726 dac~;
#X obj 2258 661 knob 50 0 127 0 0 empty empty #E3DFD9 #968E82 #5A5A5A 1 0 0 0 1 270 0 0 0;
#X obj 2040 582 bela_randomsequence 16 11 30;
#X obj 1909 564 bela_fmosc~;
#X floatatom 1908 513 5 0 0 0 - - - 12;
#X floatatom 1972 511 5 0 0 0 - - - 12;
#X obj 1841 743 *~;
#X obj 1929 588 tgl 25 0 empty empty empty 17 7 0 10 #e3dfd9 #5a5a5a #5a5a5a 0 1;
#X obj 1924 627 bela_asr~ 10 100 2;
#X obj 1695 450 bng 25 250 50 0 empty empty empty 17 7 0 10 #e3dfd9 #5a5a5a #5a5a5a;
#X obj 1729 588 bela_snare~ 100;
#X obj 1883 851 dac~;
#X obj 1883 817 bela_audiodelay~ 200;
#X obj 1824 458 beka_test tedds;
#X obj 1964 451 dac~;
#X obj 1908 350 bng 25 250 50 0 empty empty empty 17 7 0 10 #e3dfd9 #5a5a5a #5a5a5a;
#X obj 1943 385 bela_sampleplayback~ /Users/kyle.ramsey/Documents/Audio/Bela/Creating_Instruments_with_Bela_Workshop/samples/BassDrum.wav;
#X connect 1 0 10 0;
#X connect 1 0 18 0;
#X connect 2 0 1 0;
#X connect 3 0 6 0;
#X connect 3 0 20 0;
#X connect 4 0 7 0;
#X connect 7 0 8 0;
#X connect 7 0 8 1;
#X connect 7 0 20 0;
#X connect 9 0 7 1;
#X connect 10 0 3 0;
#X connect 10 1 4 0;
#X connect 10 2 5 0;
#X connect 11 0 14 0;
#X connect 12 0 11 0;
#X connect 13 0 11 1;
#X connect 14 0 19 0;
#X connect 14 0 19 1;
#X connect 15 0 16 0;
#X connect 16 0 14 1;
#X connect 17 0 18 0;
#X connect 18 0 20 0;
#X connect 20 0 19 0;
#X connect 20 0 19 1;
#X connect 23 0 24 0;
#X connect 24 0 22 0;
