#N canvas 827 239 527 327 12;
#X obj 1272 773 f 0;
#X obj 1316 773 + 1;
#X obj 1272 744 metro 1;
#X msg 1432 726 0;
#X obj 1272 711 tgl 25 0 empty empty empty 17 7 0 10 #e3dfd9 #5a5a5a #5a5a5a 0 1;
#X obj 1367 826 / 1000;
#X obj 1367 855 i;
#X obj 1367 884 change;
#X obj 1453 855 i;
#X obj 1453 884 change;
#X obj 1453 826 / 60000;
#X obj 1272 942 outlet msecs;
#X obj 1367 940 outlet secs;
#X obj 1453 940 outlet mins;
#X obj 1534 855 i;
#X obj 1534 884 change;
#X obj 1534 826 / 600000;
#X obj 1534 940 outlet hours;
#X obj 1272 646 inlet (bang)play/pause, f 19;
#X obj 1432 661 inlet (bang)resets;
#X text 1608 623 abstraction which is a timer that keeps track of msec \, seconds \, minutes and hours.;
#X text 1610 670 useful for long duration exhibiton work which changes throughout the day., f 36;
#X connect 0 0 1 0;
#X connect 0 0 5 0;
#X connect 0 0 10 0;
#X connect 0 0 16 0;
#X connect 0 0 11 0;
#X connect 1 0 0 1;
#X connect 2 0 0 0;
#X connect 3 0 0 0;
#X connect 4 0 2 0;
#X connect 5 0 6 0;
#X connect 6 0 7 0;
#X connect 7 0 12 0;
#X connect 8 0 9 0;
#X connect 9 0 13 0;
#X connect 10 0 8 0;
#X connect 14 0 15 0;
#X connect 15 0 17 0;
#X connect 16 0 14 0;
#X connect 18 0 4 0;
#X connect 19 0 3 0;
