#N canvas 827 239 527 327 12;
#X obj 187 188 line~;
#X obj 187 296 -~ 0.25;
#X obj 187 325 cos~;
#X obj 187 256 *~ 20;
#X obj 187 222 sqrt~;
#X obj 187 359 lop~ 1000;
#X text 261 312 <- Sine Waveshaper;
#X text 247 221 <- Pitch Bend;
#X text 247 255 <- Pitch;
#X msg 187 159 0 \, 1 200;
#X obj 191 434 outlet~ kick;
#X obj 187 124 bng 25 250 50 0 empty empty empty 17 7 0 10 #e3dfd9 #5a5a5a #5a5a5a;
#X obj 187 98 inlet (bang) trigger kick;
#X obj 374 121 inlet (float) pitch;
#X obj 386 152 clip 0 127;
#X obj 374 197 f \$1;
#X obj 500 145 loadbang;
#X connect 0 0 4 0;
#X connect 1 0 2 0;
#X connect 2 0 5 0;
#X connect 3 0 1 0;
#X connect 4 0 3 0;
#X connect 5 0 10 0;
#X connect 9 0 0 0;
#X connect 11 0 9 0;
#X connect 12 0 11 0;
#X connect 13 0 14 0;
#X connect 14 0 15 0;
#X connect 15 0 3 1;
#X connect 16 0 15 0;
