#N canvas 827 239 527 327 12;
#X obj 292 150 bng 25 250 50 0 empty empty empty 17 7 0 10 #e3dfd9 #5a5a5a #5a5a5a;
#X obj 362 256 * 1.509;
#X obj 294 343 phasor~;
#X obj 422 343 phasor~;
#X obj 294 369 -~ 0.5;
#X obj 422 369 -~ 0.5;
#X obj 422 402 bp~ 830 0.4;
#X obj 376 477 *~;
#X msg 500 281 1 4 \, 0 250 4;
#X msg 599 281 0.5 4 \, 0 600 4;
#X obj 529 336 vline~;
#X obj 529 362 pow~ 6;
#X obj 620 336 vline~;
#X obj 620 362 pow~ 3;
#X obj 376 503 *~ 0.5;
#X obj 292 229 f 800;
#X obj 457 156 mtof;
#X obj 457 123 f \$1;
#X obj 529 81 loadbang;
#X obj 261 87 inlet (bang) trigger cowbell;
#X obj 467 53 inlet (float) midi pitch;
#X obj 376 541 outlet~ cowbell;
#X connect 0 0 8 0;
#X connect 0 0 15 0;
#X connect 0 0 9 0;
#X connect 1 0 3 0;
#X connect 2 0 4 0;
#X connect 3 0 5 0;
#X connect 4 0 7 0;
#X connect 5 0 6 0;
#X connect 6 0 7 0;
#X connect 7 0 14 0;
#X connect 8 0 10 0;
#X connect 9 0 12 0;
#X connect 10 0 11 0;
#X connect 11 0 7 1;
#X connect 12 0 13 0;
#X connect 13 0 7 1;
#X connect 14 0 21 0;
#X connect 15 0 1 0;
#X connect 15 0 2 0;
#X connect 16 0 15 1;
#X connect 17 0 16 0;
#X connect 18 0 17 0;
#X connect 19 0 0 0;
#X connect 20 0 17 0;
