#N canvas 827 239 527 327 12;
#X obj 92 157 inlet~ (signal) adc 1 output;
#X obj 103 203 delwrite~ \$0-delay 1000;
#X obj 304 260 delread4~ \$0-delay;
#X obj 385 329 s~ \$0-feedback;
#X obj 287 172 r~ \$0-feedback;
#X obj 436 113 inlet~ (signal/float) delay time in ms;
#X obj 171 408 outlet~ (signal) delay output;
#X obj 385 300 *~ 0.4;
#X obj 478 188 *~ 1000;
#X obj 454 236 +~ 100;
#X obj 256 329 expr~ tanh($v1);
#X connect 0 0 1 0;
#X connect 2 0 7 0;
#X connect 2 0 10 0;
#X connect 4 0 1 0;
#X connect 5 0 8 0;
#X connect 7 0 3 0;
#X connect 8 0 9 0;
#X connect 9 0 2 0;
#X connect 10 0 6 0;
