#N canvas 827 239 527 327 12;
#X obj 92 157 inlet~ (signal) adc 1 output;
#X obj 103 203 delwrite~ \$0-delay 1000;
#X obj 304 260 delread4~ \$0-delay;
#X obj 385 382 s~ \$0-feedback;
#X obj 287 172 r~ \$0-feedback;
#X obj 92 382 outlet~ (signal) delay output;
#X obj 385 300 *~ 0.4;
#X obj 256 329 expr~ tanh($v1);
#X obj 664 157 f \$1;
#X obj 713 137 loadbang;
#X obj 436 113 inlet (float) delay time in ms;
#X obj 453 203 clip 0 5000;
#X obj 478 237 sig~;
#X obj 434 351 hip~ 4000;
#X connect 0 0 1 0;
#X connect 0 0 5 0;
#X connect 2 0 6 0;
#X connect 2 0 7 0;
#X connect 4 0 1 0;
#X connect 6 0 13 0;
#X connect 7 0 5 0;
#X connect 8 0 11 0;
#X connect 9 0 8 0;
#X connect 10 0 11 0;
#X connect 11 0 12 0;
#X connect 12 0 2 0;
#X connect 13 0 3 0;
