#N canvas 827 239 527 327 12;
#X obj 553 221 bng 25 250 50 0 empty empty empty 17 7 0 10 #191919 #e1e1e1 #e1e1e1;
#X obj 598 359 + 1;
#X obj 553 417 bng 25 250 50 0 empty empty empty 17 7 0 10 #191919 #e1e1e1 #e1e1e1;
#X obj 585 417 bng 25 250 50 0 empty empty empty 17 7 0 10 #191919 #e1e1e1 #e1e1e1;
#X obj 585 283 delay 300;
#X obj 553 388 sel 1 2;
#X obj 446 188 inlet (bang) click;
#X obj 542 475 outlet (bang) single click;
#X obj 704 475 outlet (bang) double click;
#X obj 579 188 inlet (float) max time between clicks;
#X text 829 187 finite state machine implementation to detect single and double clicks/bangs;
#X text 669 282 max time to wait before reseting state machine;
#X text 657 318 send 0 to restart counter;
#X text 652 358 counter which increments 1 after each bang;
#X text 649 392 check for numbers 1 and 2;
#X obj 553 359 i 1;
#X msg 585 319 1;
#X connect 0 0 4 0;
#X connect 0 0 15 0;
#X connect 1 0 15 1;
#X connect 2 0 7 0;
#X connect 3 0 8 0;
#X connect 4 0 16 0;
#X connect 5 0 2 0;
#X connect 5 1 3 0;
#X connect 6 0 0 0;
#X connect 9 0 4 1;
#X connect 15 0 1 0;
#X connect 15 0 5 0;
#X connect 16 0 15 1;
