#N canvas 827 239 527 327 12;
#X obj 207 132 osc~ 440;
#X obj 279 57 vline~;
#X obj 220 345 *~;
#X obj 220 374 dac~;
#X obj 207 183 clip~ -0.8 0.8;
#X obj 217 254 vcf~ 40;
#X obj 279 106 *~ 400;
#X msg 279 26 1 10 \, 0 100 10;
#X obj 279 -10 inlet (bang) trigger sound;
#X connect 0 0 4 0;
#X connect 1 0 2 1;
#X connect 1 0 6 0;
#X connect 2 0 3 0;
#X connect 2 0 3 1;
#X connect 4 0 5 0;
#X connect 5 0 2 0;
#X connect 6 0 5 1;
#X connect 6 0 0 0;
#X connect 7 0 1 0;
#X connect 8 0 7 0;
