#N canvas 827 239 527 327 12;
#X obj 122 119 *~ 2;
#X obj 122 148 -~ 1;
#X obj 122 205 outlet~ (signal) bandlimited waveform;
#X obj 122 177 clip~ -1 1;
#X obj 122 90 inlet~ (signal) 0-1;
#X connect 0 0 1 0;
#X connect 1 0 3 0;
#X connect 3 0 2 0;
#X connect 4 0 0 0;
