#N canvas 0 28 1440 775 10;
#X obj 654 446 bng 15 250 50 0 empty empty empty 17 7 0 10 #fcfcfc #000000 #000000;
#X obj 471 526 *~;
#N canvas 916 132 450 300 linear_window 0;
#X obj 86 150 line~;
#X obj 234 193 snapshot~;
#X floatatom 234 220 0 0 0 0 - - - 0;
#X obj 234 88 metro 100;
#X obj 68 24 inlet;
#X obj 86 193 outlet~;
#X msg 87 88 1 200;
#X obj 149 88 del 200;
#X msg 149 117 0 200;
#X connect 0 0 1 0;
#X connect 0 0 5 0;
#X connect 1 0 2 0;
#X connect 3 0 1 0;
#X connect 4 0 6 0;
#X connect 4 0 3 0;
#X connect 4 0 7 0;
#X connect 6 0 0 0;
#X connect 7 0 8 0;
#X connect 8 0 0 0;
#X restore 496 481 pd linear_window;
#N canvas 846 113 450 300 freeze_switch 0;
#X obj 85 27 tgl 15 0 empty empty empty 17 7 0 10 #fcfcfc #000000 #000000 0 1;
#X obj 134 27 tgl 15 0 empty empty empty 17 7 0 10 #fcfcfc #000000 #000000 0 1;
#X obj 72 64 sel 1 0;
#X obj 142 63 sel 1 0;
#X obj 101 4 inlet;
#X obj 58 235 outlet;
#X obj 168 234 outlet;
#X obj 171 11 loadbang;
#X floatatom 103 183 5 0 0 0 - - - 0;
#X floatatom 161 182 5 0 0 0 - - - 0;
#X floatatom 208 182 5 0 0 0 - - - 0;
#X floatatom 58 182 5 0 0 0 - - - 0;
#X msg 277 130 100;
#X obj 105 120 bng 15 250 50 0 empty empty empty 17 7 0 10 #fcfcfc #000000 #000000;
#X obj 161 119 bng 15 250 50 0 empty empty empty 17 7 0 10 #fcfcfc #000000 #000000;
#X obj 205 121 bng 15 250 50 0 empty empty empty 17 7 0 10 #fcfcfc #000000 #000000;
#X obj 61 122 bng 15 250 50 0 empty empty empty 17 7 0 10 #fcfcfc #000000 #000000;
#X connect 0 0 2 0;
#X connect 1 0 3 0;
#X connect 2 0 16 0;
#X connect 2 1 13 0;
#X connect 3 0 14 0;
#X connect 3 1 15 0;
#X connect 4 0 0 0;
#X connect 4 0 1 0;
#X connect 7 0 1 0;
#X connect 7 0 12 0;
#X connect 8 0 5 0;
#X connect 9 0 6 0;
#X connect 10 0 6 0;
#X connect 11 0 5 0;
#X connect 12 0 10 0;
#X connect 12 0 8 0;
#X connect 13 0 8 0;
#X connect 14 0 9 0;
#X connect 15 0 10 0;
#X connect 16 0 11 0;
#X restore 689 623 pd freeze_switch;
#X obj 793 481 bng 15 250 50 0 empty empty empty 17 7 0 10 #fcfcfc #000000 #000000;
#X msg 848 642 0;
#X obj 304 863 outlet~ (signal) left;
#X obj 465 863 outlet~ (signal) right;
#X obj 443 255 inlet~ (signal) input;
#X obj 650 417 inlet (bang) freeze;
#X obj 789 417 inlet (bang) clear;
#X obj 524 691 bela_rev3~ 100 100 1000 0;
#X obj 698 689 bela_rev3~ 100 100 1000 0;
#X connect 0 0 2 0;
#X connect 0 0 3 0;
#X connect 1 0 11 0;
#X connect 1 0 12 0;
#X connect 2 0 1 1;
#X connect 3 0 11 3;
#X connect 3 1 12 3;
#X connect 4 0 5 0;
#X connect 5 0 11 3;
#X connect 5 0 12 3;
#X connect 8 0 1 0;
#X connect 9 0 0 0;
#X connect 10 0 4 0;
#X connect 11 0 6 0;
#X connect 11 1 7 0;
#X connect 12 0 6 0;
#X connect 12 1 7 0;
