#N canvas 827 239 527 327 12;
#X obj 711 526 sig~;
#X obj 711 555 phasor~;
#X floatatom 884 506 5 0 0 0 - - - 12;
#X obj 884 533 clip 0.1 0.99;
#X obj 881 557 sig~;
#X obj 764 696 *~ 2;
#X obj 764 725 -~ 1;
#X obj 764 761 outlet~ signal;
#X obj 684 475 inlet (float) frequency;
#X obj 884 475 inlet (float) pulse width 0-1;
#X obj 764 667 expr~ $v1 > $v2;
#X connect 0 0 1 0;
#X connect 1 0 10 0;
#X connect 2 0 3 0;
#X connect 3 0 4 0;
#X connect 4 0 10 1;
#X connect 5 0 6 0;
#X connect 6 0 7 0;
#X connect 8 0 0 0;
#X connect 9 0 2 0;
#X connect 10 0 5 0;
