#N canvas 827 239 527 327 12;
#X obj 518 427 sel 1 0;
#X obj 585 733 vline~;
#X msg 581 574 1 \$1;
#X floatatom 585 444 5 0 0 0 - - - 12;
#X floatatom 1051 393 5 0 0 0 - - - 12;
#X msg 818 574 0 \$1;
#X obj 553 638 list store;
#X obj 773 638 list store;
#X floatatom 773 444 5 0 0 0 - - - 12;
#X obj 630 520 delay;
#X obj 662 617 list store;
#X obj 711 500 pack f f;
#X floatatom 701 444 5 0 0 0 - - - 12;
#X msg 711 549 \$1 \$2;
#X obj 585 260 inlet (float) attack ms;
#X obj 888 252 inlet (float) sustain 0-1;
#X obj 736 260 inlet (float) decay ms;
#X obj 1051 260 inlet (float) release ms;
#X msg 1000 672 stop;
#X obj 981 618 t b b;
#X obj 1143 393 loadbang;
#X msg 625 413 10;
#X msg 745 418 10;
#X msg 841 429 0.6;
#X msg 1119 446 100;
#X obj 555 822 outlet~ envelope;
#X obj 829 396 clip 0 1;
#X obj 448 351 inlet (toggle) 1 or 0;
#X obj 585 350 f \$2;
#X obj 719 350 f \$3;
#X obj 870 328 f \$4;
#X obj 1051 325 f \$5;
#X obj 973 286 loadbang;
#X connect 0 0 6 0;
#X connect 0 0 9 0;
#X connect 0 1 7 0;
#X connect 0 1 19 0;
#X connect 1 0 25 0;
#X connect 2 0 6 1;
#X connect 3 0 2 0;
#X connect 3 0 9 1;
#X connect 4 0 5 0;
#X connect 5 0 7 1;
#X connect 6 0 1 0;
#X connect 7 0 1 0;
#X connect 8 0 11 0;
#X connect 9 0 10 0;
#X connect 10 0 1 0;
#X connect 11 0 13 0;
#X connect 12 0 11 1;
#X connect 13 0 10 1;
#X connect 14 0 28 0;
#X connect 15 0 30 0;
#X connect 16 0 29 0;
#X connect 17 0 31 0;
#X connect 18 0 1 0;
#X connect 18 0 9 0;
#X connect 19 0 7 0;
#X connect 19 1 18 0;
#X connect 20 0 21 0;
#X connect 20 0 22 0;
#X connect 20 0 23 0;
#X connect 20 0 24 0;
#X connect 21 0 3 0;
#X connect 22 0 12 0;
#X connect 23 0 8 0;
#X connect 24 0 4 0;
#X connect 26 0 8 0;
#X connect 27 0 0 0;
#X connect 28 0 3 0;
#X connect 29 0 12 0;
#X connect 30 0 26 0;
#X connect 31 0 4 0;
#X connect 32 0 31 0;
#X connect 32 0 30 0;
#X connect 32 0 29 0;
#X connect 32 0 28 0;
