#N canvas 827 239 527 327 12;
#X text 372 187 Range Normalisation / Scaling;
#X obj 648 170 loadbang;
#X obj 534 245 f \$2;
#X obj 715 245 f \$3;
#X text 1051 203 heavy supported pd implementation of s scaling/normalization function;
#X text 1182 231 expr (($f1-$f2)*($f5-$f4)/($f3-$f2))+$f4;
#X obj 401 245 inlet (float) input min;
#X obj 579 245 inlet (float) input max;
#X obj 752 245 inlet (float) output min;
#X obj 939 245 inlet (float) output max;
#X obj 896 245 f \$4;
#X obj 1088 245 f \$5;
#X obj 466 274 sig~;
#X obj 628 284 sig~;
#X obj 804 284 sig~;
#X obj 1008 284 sig~;
#X obj 414 324 -~;
#X obj 924 324 -~;
#X obj 656 332 -~;
#X obj 546 382 *~;
#X obj 615 407 /~;
#X obj 680 447 +~;
#X obj 683 486 outlet~ (signal) output signal;
#X obj 205 245 inlet~ (signal) input signal;
#X connect 1 0 2 0;
#X connect 1 0 3 0;
#X connect 1 0 10 0;
#X connect 1 0 11 0;
#X connect 2 0 12 0;
#X connect 3 0 13 0;
#X connect 6 0 12 0;
#X connect 7 0 13 0;
#X connect 8 0 14 0;
#X connect 9 0 15 0;
#X connect 10 0 14 0;
#X connect 11 0 15 0;
#X connect 12 0 16 1;
#X connect 12 0 18 1;
#X connect 13 0 18 0;
#X connect 14 0 17 1;
#X connect 14 0 21 1;
#X connect 15 0 17 0;
#X connect 16 0 19 0;
#X connect 17 0 19 1;
#X connect 18 0 20 1;
#X connect 19 0 20 0;
#X connect 20 0 21 0;
#X connect 21 0 22 0;
#X connect 23 0 16 0;
