#N canvas 827 239 527 327 12;
#X obj 364 97 vsl 17 128 0 1 0 0 empty empty empty 0 -9 0 10 #e3dfd9 #5a5a5a #5a5a5a 0 1;
#X obj 333 341 spigot;
#X obj 359 243 > 0.5;
#X obj 359 270 change;
#X obj 436 373 bng 25 250 50 0 empty empty empty 17 7 0 10 #e3dfd9 #5a5a5a #5a5a5a;
#X obj 436 344 sel 0 1;
#X obj 468 373 bng 25 250 50 0 empty empty empty 17 7 0 10 #e3dfd9 #5a5a5a #5a5a5a;
#X floatatom 315 511 13 0 0 0 - - - 16;
#X floatatom 446 506 5 0 0 0 - - - 12;
#X floatatom 325 416 10 0 0 0 - - - 12;
#X msg 428 414 0 1000;
#X obj 428 461 line 0 100;
#X msg 495 416 0.5 1000;
#X obj 722 84 vsl 17 128 0 1 0 0 empty empty empty 0 -9 0 10 #e3dfd9 #5a5a5a #5a5a5a 0 1;
#X floatatom 798 314 5 0 0 0 - - - 12;
#X floatatom 735 314 5 0 0 0 - - - 12;
#X obj 735 262 > 0.4;
#X obj 798 262 < 0.8;
#X obj 754 437 spigot;
#X obj 779 404 tgl 25 0 empty empty empty 17 7 0 10 #e3dfd9 #5a5a5a #5a5a5a 0 1;
#X obj 779 374 min;
#X obj 798 341 t b f;
#X floatatom 767 496 5 0 0 0 - - - 12;
#X obj 782 563 line;
#X floatatom 782 592 20 0 0 0 - - - 36;
#X obj 827 404 sel 0;
#X obj 827 433 bng 25 250 50 0 empty empty empty 17 7 0 10 #e3dfd9 #5a5a5a #5a5a5a;
#X obj 798 286 change;
#X obj 735 286 change;
#X obj 876 404 sel 0;
#X obj 876 433 bng 25 250 50 0 empty empty empty 17 7 0 10 #e3dfd9 #5a5a5a #5a5a5a;
#X msg 852 488 0 1000;
#X msg 914 488 1 1000;
#X obj 1020 496 vsl 17 128 0 1 0 0 empty empty empty 0 -9 0 10 #e3dfd9 #5a5a5a #5a5a5a 0 1;
#X obj 767 523 \$1 1000;
#X obj 1050 84 vsl 17 128 0 1 0 0 empty empty empty 0 -9 0 10 #e3dfd9 #5a5a5a #5a5a5a 0 1;
#X floatatom 1101 313 5 0 0 0 - - - 12;
#X obj 1101 262 > 0.4;
#X obj 1120 437 spigot;
#X obj 1145 404 tgl 25 0 empty empty empty 17 7 0 10 #e3dfd9 #5a5a5a #5a5a5a 0 1;
#X floatatom 1133 496 5 0 0 0 - - - 12;
#X floatatom 1148 762 20 0 0 0 - - - 36;
#X obj 1254 523 bng 25 250 50 0 empty empty empty 17 7 0 10 #e3dfd9 #5a5a5a #5a5a5a;
#X obj 1101 286 change;
#X msg 1255 563 0 1000;
#X obj 1154 726 line 0 20;
#X obj 1226 341 sel 0 1;
#X obj 1144 533 spigot;
#X obj 1185 489 tgl 25 0 empty empty empty 17 7 0 10 #e3dfd9 #5a5a5a #5a5a5a 0 1;
#X obj 1272 395 bng 25 250 50 0 empty empty empty 17 7 0 10 #e3dfd9 #5a5a5a #5a5a5a;
#X obj 1723 363 *~;
#X obj 1704 285 sig~;
#X floatatom 1704 215 5 0 0 0 - - - 12;
#X obj 1704 435 +~;
#X obj 1564 497 *~;
#X obj 1727 311 <~ 0.4;
#X obj 1723 404 lop~ 0.2;
#X obj 1671 464 clip~ 0 1;
#X obj 1538 345 inlet~ audio signal;
#X obj 1704 180 inlet volume;
#X obj 1807 311 sig~;
#X obj 1989 326 sig~;
#X obj 1564 533 outlet~ signal;
#X obj 2138 180 loadbang;
#X obj 1807 285 * -1;
#X msg 2186 215 0.2;
#X obj 1807 180 inlet threshold (0-1);
#X obj 1807 215 clip 0 1;
#X msg 2138 209 0.4;
#X obj 1704 256 clip 0 1;
#X obj 1765 285 sig~;
#X obj 1989 180 inlet smoothing (0-1);
#X connect 0 0 2 0;
#X connect 0 0 1 0;
#X connect 1 0 9 0;
#X connect 2 0 3 0;
#X connect 3 0 1 1;
#X connect 3 0 5 0;
#X connect 4 0 10 0;
#X connect 5 0 4 0;
#X connect 5 1 6 0;
#X connect 6 0 12 0;
#X connect 9 0 11 0;
#X connect 10 0 11 0;
#X connect 11 0 7 0;
#X connect 11 0 8 0;
#X connect 12 0 11 0;
#X connect 13 0 16 0;
#X connect 13 0 17 0;
#X connect 13 0 18 0;
#X connect 13 0 22 0;
#X connect 14 0 21 0;
#X connect 14 0 29 0;
#X connect 15 0 20 0;
#X connect 15 0 25 0;
#X connect 15 0 28 0;
#X connect 16 0 28 0;
#X connect 17 0 27 0;
#X connect 18 0 22 0;
#X connect 19 0 18 1;
#X connect 20 0 19 0;
#X connect 21 0 20 0;
#X connect 21 1 20 1;
#X connect 22 0 34 0;
#X connect 23 0 24 0;
#X connect 24 0 33 0;
#X connect 25 0 26 0;
#X connect 26 0 31 0;
#X connect 27 0 14 0;
#X connect 28 0 15 0;
#X connect 29 0 30 0;
#X connect 30 0 32 0;
#X connect 31 0 23 0;
#X connect 32 0 23 0;
#X connect 34 0 23 0;
#X connect 35 0 37 0;
#X connect 35 0 38 0;
#X connect 36 0 39 0;
#X connect 36 0 46 0;
#X connect 37 0 43 0;
#X connect 38 0 40 0;
#X connect 39 0 38 1;
#X connect 40 0 47 0;
#X connect 42 0 44 0;
#X connect 43 0 36 0;
#X connect 44 0 45 0;
#X connect 45 0 41 0;
#X connect 46 0 42 0;
#X connect 46 1 49 0;
#X connect 47 0 45 0;
#X connect 48 0 47 1;
#X connect 50 0 56 0;
#X connect 51 0 55 0;
#X connect 51 0 53 0;
#X connect 52 0 69 0;
#X connect 53 0 57 0;
#X connect 54 0 62 0;
#X connect 55 0 50 0;
#X connect 56 0 53 1;
#X connect 57 0 54 1;
#X connect 58 0 54 0;
#X connect 59 0 52 0;
#X connect 60 0 50 1;
#X connect 61 0 56 1;
#X connect 63 0 68 0;
#X connect 63 0 65 0;
#X connect 64 0 60 0;
#X connect 65 0 61 0;
#X connect 66 0 67 0;
#X connect 67 0 64 0;
#X connect 67 0 70 0;
#X connect 68 0 64 0;
#X connect 68 0 70 0;
#X connect 69 0 51 0;
#X connect 70 0 55 1;
#X connect 71 0 61 0;
