#N canvas 827 239 527 327 12;
#X obj 353 206 random 100;
#X obj 353 341 < 50;
#X obj 353 411 tgl 25 0 empty empty empty 17 7 0 10 #e3dfd9 #5a5a5a #5a5a5a 0 1;
#X obj 686 51 inlet (float) density 0-100;
#X msg 395 171 seed \$1;
#X obj 249 192 + 1;
#X obj 208 192 i 0;
#X obj 208 251 mod 16;
#X floatatom 208 286 5 0 0 0 - - - 12;
#X obj 236 334 - 1;
#X obj 216 385 sel 15;
#X obj 216 411 bng 25 250 50 0 empty empty empty 17 7 0 10 #e3dfd9 #5a5a5a #5a5a5a;
#X obj 165 468 send reset_seed;
#X obj 395 86 receive reset_seed;
#X obj 287 46 inlet (float) phrase length;
#X obj 304 131 f 16;
#X obj 686 76 f \$3;
#X obj 529 68 f \$2;
#X obj 296 86 f \$1;
#X obj 361 457 sel 1 0;
#X obj 263 514 outlet (bang) beat;
#X obj 395 514 outlet (bang) rest;
#X obj 395 131 f 1;
#X obj 529 46 inlet (float) seed;
#X obj 874 51 loadbang;
#X obj 117 86 bang;
#X obj 58 46 inlet (bang) attach [metro] object;
#X obj 536 513 outlet (bang) end of sequence;
#X connect 0 0 1 0;
#X connect 1 0 2 0;
#X connect 2 0 19 0;
#X connect 3 0 16 0;
#X connect 4 0 0 0;
#X connect 5 0 6 1;
#X connect 6 0 5 0;
#X connect 6 0 7 0;
#X connect 7 0 8 0;
#X connect 8 0 10 0;
#X connect 9 0 10 1;
#X connect 10 0 11 0;
#X connect 11 0 12 0;
#X connect 11 0 27 0;
#X connect 13 0 22 0;
#X connect 14 0 18 0;
#X connect 15 0 7 1;
#X connect 15 0 9 0;
#X connect 16 0 1 1;
#X connect 17 0 22 0;
#X connect 18 0 15 0;
#X connect 19 0 20 0;
#X connect 19 1 21 0;
#X connect 22 0 4 0;
#X connect 23 0 17 0;
#X connect 24 0 16 0;
#X connect 24 0 17 0;
#X connect 24 0 18 0;
#X connect 25 0 6 0;
#X connect 25 0 0 0;
#X connect 26 0 25 0;
