#N canvas 827 239 527 327 12;
#X obj 684 220 change;
#X obj 684 391 f 100;
#X obj 762 391 f 1000;
#X floatatom 762 214 5 0 0 0 - - - 12;
#X floatatom 839 214 5 0 0 0 - - - 12;
#X obj 654 443 pack f f;
#X obj 717 443 pack f f;
#X obj 663 348 t b b;
#X msg 660 396 1;
#X obj 684 251 sel 1 0;
#X obj 735 348 t b b;
#X msg 737 391 0;
#X obj 715 553 line~;
#X obj 715 597 pow~ 1;
#X obj 785 553 clip 1 4;
#X floatatom 937 214 5 0 0 0 - - - 12;
#X obj 731 300 f \$1;
#X obj 812 300 f \$2;
#X obj 937 306 f \$3;
#X obj 1069 214 loadbang;
#X obj 912 453 f 1;
#X obj 715 634 outlet~ gate;
#X obj 559 182 inlet (toggle);
#X obj 692 188 inlet (float) attack;
#X obj 839 188 inlet (float) release;
#X obj 970 188 inlet (float) power;
#X connect 0 0 9 0;
#X connect 1 0 5 1;
#X connect 2 0 6 1;
#X connect 3 0 16 0;
#X connect 4 0 17 0;
#X connect 5 0 12 0;
#X connect 6 0 12 0;
#X connect 7 0 8 0;
#X connect 7 1 1 0;
#X connect 8 0 5 0;
#X connect 9 0 7 0;
#X connect 9 1 10 0;
#X connect 10 0 11 0;
#X connect 10 1 2 0;
#X connect 11 0 6 0;
#X connect 12 0 13 0;
#X connect 13 0 21 0;
#X connect 14 0 13 1;
#X connect 15 0 18 0;
#X connect 16 0 1 1;
#X connect 17 0 2 1;
#X connect 18 0 20 0;
#X connect 19 0 16 0;
#X connect 19 0 17 0;
#X connect 19 0 18 0;
#X connect 20 0 14 0;
#X connect 22 0 0 0;
#X connect 23 0 3 0;
#X connect 24 0 4 0;
#X connect 25 0 15 0;
