#N canvas 827 239 527 327 12;
#X obj 818 189 soundfiler;
#N canvas 0 0 450 300 (subpatch) 0;
#X array \$0-sample 4937 float 2;
#X coords 0 1 4937 -1 100 56 1;
#X restore 991 32 graph;
#X obj 971 100 loadbang;
#X obj 818 136 pack s s;
#X msg 818 161 read -resize \$1 \$2;
#X obj 634 119 hip~ 5;
#X obj 970 124 symbol \$0-sample;
#X obj 634 92 tabplay~ \$0-sample;
#X obj 818 82 symbol \$1;
#X obj 818 24 inlet (symbol) path to file;
#X obj 634 32 inlet (bang) trigger sample;
#X obj 634 211 outlet~ sample;
#X obj 762 211 outlet (bang) sample finished;
#X connect 2 0 6 0;
#X connect 2 0 8 0;
#X connect 3 0 4 0;
#X connect 4 0 0 0;
#X connect 5 0 11 0;
#X connect 6 0 3 1;
#X connect 7 0 5 0;
#X connect 7 1 12 0;
#X connect 8 0 3 0;
#X connect 9 0 8 0;
#X connect 10 0 7 0;
