#N canvas 827 239 527 327 12;
#X obj 231 141 t b b;
#X msg 231 170 1 \, 0 100;
#X obj 231 199 line~;
#X obj 231 228 pow~ 4;
#X obj 231 257 *~;
#X obj 411 199 line~;
#X obj 411 228 pow~ 4;
#X obj 411 257 *~;
#X obj 515 175 noise~;
#X obj 231 286 +~;
#X obj 515 204 hip~ 3000;
#X obj 515 233 bp~ 5000 2;
#X obj 231 315 lop~ 4000;
#X obj 305 233 osc~ 200;
#X obj 399 134 t b b;
#X msg 437 170 1;
#X obj 367 170 pack 0 f;
#X floatatom 474 84 5 0 0 0 - - - 12;
#X obj 243 84 bng 25 250 50 0 empty empty empty 17 7 0 10 #e3dfd9 #5a5a5a #5a5a5a;
#X obj 243 57 inlet (bang) trigger snare;
#X obj 474 57 inlet (float) decay;
#X obj 231 350 outlet~ snare;
#X obj 474 124 f \$1;
#X obj 556 90 loadbang;
#X connect 0 0 1 0;
#X connect 1 0 2 0;
#X connect 2 0 3 0;
#X connect 3 0 4 0;
#X connect 4 0 9 0;
#X connect 5 0 6 0;
#X connect 6 0 7 0;
#X connect 7 0 9 1;
#X connect 8 0 10 0;
#X connect 9 0 12 0;
#X connect 10 0 11 0;
#X connect 11 0 7 1;
#X connect 12 0 21 0;
#X connect 13 0 4 1;
#X connect 14 0 16 0;
#X connect 14 1 15 0;
#X connect 15 0 5 0;
#X connect 16 0 5 0;
#X connect 17 0 22 0;
#X connect 18 0 0 0;
#X connect 18 0 14 0;
#X connect 19 0 18 0;
#X connect 20 0 17 0;
#X connect 22 0 16 1;
#X connect 23 0 22 0;
