#N canvas 827 239 527 327 12;
#X obj 269 363 -;
#X obj 309 399 -;
#X obj 265 333 t b f;
#X obj 340 369 t b f;
#X obj 364 420 -;
#X obj 391 375 t b f;
#X obj 525 433 +;
#X obj 525 399 t b f;
#X obj 265 467 *;
#X obj 280 436 t b f;
#X obj 332 512 /;
#X obj 372 450 t b f;
#X text 372 115 Range Normalisation / Scaling;
#X obj 210 245 inlet (float) input value;
#X obj 391 219 inlet (float) input min;
#X obj 548 209 inlet (float) input max;
#X obj 686 209 inlet (float) output min;
#X obj 829 209 inlet (float) output max;
#X obj 445 567 outlet (float) output value;
#X obj 868 234 loadbang;
#X text 1051 203 heavy supported pd implementation of s scaling/normalization function;
#X text 1187 231 expr (($f1-$f2)*($f5-$f4)/($f3-$f2))+$f4;
#X obj 429 274 f \$2;
#X obj 429 245 loadbang;
#X obj 522 266 f \$3;
#X obj 558 234 loadbang;
#X obj 618 266 f \$4;
#X obj 686 234 loadbang;
#X obj 818 266 f \$5;
#X connect 0 0 8 0;
#X connect 1 0 9 0;
#X connect 2 0 0 0;
#X connect 2 1 0 1;
#X connect 3 0 1 0;
#X connect 3 1 1 1;
#X connect 4 0 11 0;
#X connect 5 0 4 0;
#X connect 5 1 4 1;
#X connect 6 0 18 0;
#X connect 7 0 6 0;
#X connect 7 1 6 1;
#X connect 8 0 10 0;
#X connect 9 0 8 0;
#X connect 9 0 8 1;
#X connect 9 1 8 1;
#X connect 10 0 6 0;
#X connect 11 0 10 0;
#X connect 11 1 10 1;
#X connect 13 0 0 0;
#X connect 14 0 22 0;
#X connect 15 0 24 0;
#X connect 16 0 26 0;
#X connect 17 0 28 0;
#X connect 19 0 28 0;
#X connect 22 0 5 0;
#X connect 22 0 2 0;
#X connect 23 0 22 0;
#X connect 24 0 4 0;
#X connect 25 0 24 0;
#X connect 26 0 7 0;
#X connect 26 0 3 0;
#X connect 27 0 26 0;
#X connect 28 0 1 0;
