#N canvas 827 239 527 327 12;
#X obj 399 373 phasor~;
#X obj 469 382 phasor~;
#X obj 438 579 +~;
#X obj 469 362 *~ 1.005;
#X obj 438 621 lop~ 5000;
#X obj 438 600 vcf~ 3;
#X obj 384 166 inlet~ (signal/float) frequency;
#X obj 469 410 *~ 2;
#X obj 399 404 *~ 2;
#X obj 469 439 -~ 1;
#X obj 399 433 -~ 1;
#X obj 438 660 expr~ tanh($v1);
#X obj 438 700 outlet~ (signal) soft clipped output;
#X obj 589 166 inlet~ (signal/float) frequency modulation;
#X obj 589 201 osc~;
#X obj 469 285 +~;
#X obj 554 252 *~ 300;
#X connect 0 0 8 0;
#X connect 1 0 7 0;
#X connect 2 0 5 0;
#X connect 3 0 1 0;
#X connect 4 0 11 0;
#X connect 5 0 4 0;
#X connect 6 0 15 0;
#X connect 7 0 9 0;
#X connect 8 0 10 0;
#X connect 9 0 2 1;
#X connect 10 0 2 0;
#X connect 11 0 12 0;
#X connect 13 0 14 0;
#X connect 14 0 16 0;
#X connect 15 0 3 0;
#X connect 15 0 0 0;
#X connect 15 0 5 1;
#X connect 16 0 15 1;
